<svg xmlns="http://www.w3.org/2000/svg" viewBox="0 0 331.38 30"><defs><style>.cls-1{fill:#fff;}.cls-2{fill:#00ffe0;}</style></defs><title>logo</title><g id="Layer_2" data-name="Layer 2"><g id="elementos"><polygon class="cls-1" points="299.27 1.56 295.24 1.56 295.24 17.74 297.26 17.74 299.27 17.74 308.27 17.74 308.27 13.71 299.27 13.71 299.27 1.56"/><polygon class="cls-1" points="331.38 13.71 316.33 13.71 316.33 1.56 312.3 1.56 312.3 29.9 316.33 29.9 316.33 17.74 331.38 17.74 331.38 13.71"/><polygon class="cls-2" points="187.81 29.9 166.8 29.9 181.59 5.77 168.1 5.77 168.1 1.56 189.11 1.56 174.31 25.69 187.81 25.69 187.81 29.9"/><path class="cls-2" d="M220.52,5.49a10.24,10.24,0,1,1-10.24,10.24A10.25,10.25,0,0,1,220.52,5.49m0-4a14.27,14.27,0,1,0,14.27,14.27A14.27,14.27,0,0,0,220.52,1.46Z"/><path class="cls-2" d="M68.75,5.49A10.24,10.24,0,1,1,58.51,15.73,10.25,10.25,0,0,1,68.75,5.49m0-4A14.27,14.27,0,1,0,83,15.73,14.27,14.27,0,0,0,68.75,1.46Z"/><polygon class="cls-2" points="253.93 29.3 249.9 29.3 249.9 0 271.05 20.16 271.05 0.27 275.08 0.27 275.08 29.57 253.93 9.41 253.93 29.3"/><rect class="cls-2" x="142.61" y="1.56" width="4.03" height="28.34"/><polygon class="cls-2" points="19.07 1.56 15.04 1.56 15.04 13.71 0 13.71 0 17.74 15.04 17.74 15.04 29.9 19.07 29.9 19.07 17.74 28.07 17.74 28.07 13.71 19.07 13.71 19.07 1.56"/><rect class="cls-2" x="32.1" y="1.56" width="4.03" height="28.34"/><path class="cls-2" d="M122.45,29.9h-4.85L107.08,14.11h7a4.26,4.26,0,1,0,0-8.52h-8.66V29.9h-4V1.56h12.69a8.29,8.29,0,0,1,.55,16.56Z"/></g></g></svg>