<svg xmlns="http://www.w3.org/2000/svg" xmlns:xlink="http://www.w3.org/1999/xlink" viewBox="0 0 657.06 110.41">
  <defs>
    <style>
      .cls-1 {
        fill: url(#linear-gradient); 
      }
    </style>
    <linearGradient id="linear-gradient" x1="144.43" y1="237.25" x2="504.31" y2="-122.63" gradientUnits="userSpaceOnUse">
      <stop offset="0" stop-color="#f0004e"/>
      <stop offset="1" stop-color="#ff734f"/>
    </linearGradient>
  </defs>
  <title>logo</title>
  <g>
    <path class="cls-1" d="M54.2,50.2,37.8,46a67.35,67.35,0,0,1-9.7-3,24,24,0,0,1-6.3-3.6A11.57,11.57,0,0,1,18.4,35a15,15,0,0,1-1-5.8q0-8,5.5-12.4t15.5-4.4q21.8,0,24.2,15a4.55,4.55,0,0,0,1.2,2.8,6.35,6.35,0,0,0,3.4.6H73c1.73,0,2.9-.27,3.5-.8a3.92,3.92,0,0,0,.9-3,23.26,23.26,0,0,0-7.2-17Q60.8,0,39.8,0,22.4,0,12.4,8.1T2.4,30v1q0,10.8,5.8,17.3t18.2,9.9l17.8,4.6q10,2.6,14.1,6.9t4.1,11.9q0,16.2-22.8,16.2-11.4,0-17.2-3.6t-7.6-11.6a4.23,4.23,0,0,0-1.3-2.8,6.39,6.39,0,0,0-3.3-.6H4.4c-1.74,0-2.9.27-3.5.8A3.93,3.93,0,0,0,0,83a23.45,23.45,0,0,0,7.8,17.6q10.4,9.8,32.2,9.8,38.2,0,38.2-30v-1Q78.2,56.21,54.2,50.2ZM102.37,2H94.77a5.2,5.2,0,0,0-3.32.78c-.6.56-.9,1.6-.9,3.21V103.6c0,1.6.3,2.68.9,3.21a5.2,5.2,0,0,0,3.32.78h7.61a5.08,5.08,0,0,0,3.28-.78c.6-.52.9-1.6.9-3.21V6c0-1.6-.3-2.65-.9-3.21A5.08,5.08,0,0,0,102.37,2Zm69.08,0h-7.61a5.15,5.15,0,0,0-3.28.78c-.6.56-.9,1.6-.9,3.21V46.26H124.1a2.24,2.24,0,0,0-2.24,2.24V58a2.24,2.24,0,0,0,2.24,2.24h35.57V103.6c0,1.6.3,2.68.9,3.21a5.15,5.15,0,0,0,3.28.78h7.61a5.2,5.2,0,0,0,3.32-.78c.6-.52.89-1.6.89-3.21V6c0-1.6-.3-2.65-.89-3.21A5.2,5.2,0,0,0,171.45,2Zm259,0h-7.6a5.08,5.08,0,0,0-3.3.8q-.9.8-.9,3.2V76.61S419.67,97,397,97c-1.07,0-2-.06-3-.12-6-.5-19.07-3.14-19.07-16.67V6q0-2.4-.9-3.2a5.09,5.09,0,0,0-3.3-.8h-7.6a5.08,5.08,0,0,0-3.3.8q-.9.8-.9,3.2V80.23c0,13.53-13,16.17-19.07,16.67-1,.05-2,.12-3,.12-22.63,0-21.6-20.4-21.6-20.4V6q0-2.4-.9-3.2A5.09,5.09,0,0,0,311,2h-7.6a5.08,5.08,0,0,0-3.3.8q-.9.8-.9,3.2V76.61q0,17.6,8.8,25.3t28.8,7.7q11.81,0,19.6-3a32.7,32.7,0,0,0,10.5-6.46,32.69,32.69,0,0,0,10.5,6.46q7.8,3,19.6,3,20,0,28.8-7.7t8.8-25.3V6q0-2.4-.9-3.2A5.09,5.09,0,0,0,430.43,2Zm92.21,6.78a48.73,48.73,0,0,0-25.53-6.7,49.3,49.3,0,0,0-19.74,4,47.86,47.86,0,0,0-15.93,11,50.35,50.35,0,0,0-10.56,17A59.12,59.12,0,0,0,447,55.81a59.48,59.48,0,0,0,4,21.91,49.71,49.71,0,0,0,10.94,17,49.17,49.17,0,0,0,16.55,10.89,57.74,57.74,0,0,0,45.22-1.38,50.69,50.69,0,0,0,16-12.18,2.29,2.29,0,0,0,.54-1.69,2.49,2.49,0,0,0-.85-1.7l-8-6.87a2.3,2.3,0,0,0-1.52-.57A2.55,2.55,0,0,0,528,82,40.58,40.58,0,0,1,517,90.32a37.26,37.26,0,0,1-17.22,3.94c-.59,0-1.13,0-1.7,0a35.08,35.08,0,0,1-17.23-5,6.63,6.63,0,0,1-1-.63c-.58-.39-1.17-.83-1.83-1.32-.46-.37-.92-.74-1.31-1.09a10.84,10.84,0,0,1-1.14-.94,33.89,33.89,0,0,1-6.42-8c-.39-.64-.73-1.22-1.07-1.89a41.07,41.07,0,0,1-4.91-19.53,43.33,43.33,0,0,1,4.12-18.48,33.23,33.23,0,0,1,8.87-12.08A30.42,30.42,0,0,1,485,19.88a26.06,26.06,0,0,1,3.1-1.11,10,10,0,0,1,1.62-.45c.47-.13,1-.22,1.63-.33a6.18,6.18,0,0,1,1.61-.25H493a28.38,28.38,0,0,1,5.08-.39c8.35,0,15.36,2.68,20.84,8s9,12.43,10.42,21.3l.09.56H483.14a2.4,2.4,0,0,0-2.4,2.4v8.88a2.4,2.4,0,0,0,2.4,2.4h61a1.42,1.42,0,0,0,1.44-1.23,48.11,48.11,0,0,0,.3-5.49,58.26,58.26,0,0,0-6-26.81A46,46,0,0,0,522.64,8.78ZM651,27.31A46,46,0,0,0,633.86,8.78a48.74,48.74,0,0,0-25.53-6.7,49.3,49.3,0,0,0-19.74,4,47.86,47.86,0,0,0-15.93,11,50.35,50.35,0,0,0-10.56,17,59.17,59.17,0,0,0-3.9,21.72,59.47,59.47,0,0,0,4,21.91,49.7,49.7,0,0,0,10.94,17,49.16,49.16,0,0,0,16.55,10.89,57.74,57.74,0,0,0,45.22-1.38A50.68,50.68,0,0,0,650.9,92a2.29,2.29,0,0,0,.54-1.69,2.49,2.49,0,0,0-.85-1.7l-8-6.87a2.3,2.3,0,0,0-1.52-.57,2.55,2.55,0,0,0-1.84.81,40.58,40.58,0,0,1-11.08,8.32A37.26,37.26,0,0,1,611,94.27c-.59,0-1.13,0-1.7,0a35.09,35.09,0,0,1-17.22-5,7,7,0,0,1-1-.64c-.58-.39-1.17-.83-1.83-1.32-.46-.37-.92-.74-1.34-1.11a10.57,10.57,0,0,1-1.12-.93,33.88,33.88,0,0,1-6.42-8c-.39-.64-.73-1.22-1.07-1.89a41.07,41.07,0,0,1-4.91-19.53,43.33,43.33,0,0,1,4.12-18.48,33.23,33.23,0,0,1,8.87-12.08,30.41,30.41,0,0,1,8.81-5.36,26.06,26.06,0,0,1,3.1-1.11,10,10,0,0,1,1.62-.45c.47-.13,1-.22,1.63-.33a6.19,6.19,0,0,1,1.61-.25h.06a28.38,28.38,0,0,1,5.08-.39c8.35,0,15.36,2.68,20.84,8s9,12.43,10.42,21.3l.09.56H594.35a2.4,2.4,0,0,0-2.4,2.4v8.88a2.4,2.4,0,0,0,2.4,2.4h61a1.42,1.42,0,0,0,1.44-1.23,48.11,48.11,0,0,0,.3-5.49A58.27,58.27,0,0,0,651,27.31Zm-370.19-.93A46.14,46.14,0,0,0,263.68,7.84a48.81,48.81,0,0,0-25.54-6.71,49.52,49.52,0,0,0-19.74,4,47.81,47.81,0,0,0-15.93,11,50.28,50.28,0,0,0-10.56,17A59,59,0,0,0,188,54.87a59.43,59.43,0,0,0,4,21.92,49.7,49.7,0,0,0,10.95,17,49.18,49.18,0,0,0,16.55,10.89,54,54,0,0,0,17.95,3.89h14.15c1.6,0,2.68-.29,3.21-.89a5.3,5.3,0,0,0,.78-3.33v-7a5.16,5.16,0,0,0-.78-3.29c-.53-.6-1.6-.89-3.21-.89H237.44a34.51,34.51,0,0,1-15.58-4.86,5.14,5.14,0,0,1-1-.66c-.6-.37-1.17-.82-1.83-1.32-.47-.37-.93-.74-1.34-1.11a9.85,9.85,0,0,1-1.11-.93,33.32,33.32,0,0,1-6.42-8,17.23,17.23,0,0,1-1.07-1.89,41.05,41.05,0,0,1-4.92-19.53,43.39,43.39,0,0,1,4.12-18.48,33.16,33.16,0,0,1,8.87-12.08A30.29,30.29,0,0,1,226,19a24.4,24.4,0,0,1,3.09-1.13,10.63,10.63,0,0,1,1.63-.43,16.05,16.05,0,0,1,1.63-.33,5.68,5.68,0,0,1,1.63-.27h0a30.38,30.38,0,0,1,5.08-.39c8.36,0,15.37,2.68,20.85,8s9,12.43,10.41,21.3l.08.56h0l.44,8.64v49.74c0,1.6.3,2.68.9,3.21a5.2,5.2,0,0,0,3.32.78h7.61a5.08,5.08,0,0,0,3.28-.78c.6-.52.9-1.6.9-3.21V54.87c0-.2,0-.37,0-.56,0-.37,0-.73,0-1.11A58.25,58.25,0,0,0,280.83,26.38Z"/>
  </g>
</svg>
